<svg class="svg-icon" style="width: 1em; height: 1em;vertical-align: middle;fill: currentColor;overflow: hidden;" viewBox="0 0 1024 1024" version="1.1" xmlns="http://www.w3.org/2000/svg"><path d="M512 64C264.6 64 64 264.6 64 512s200.6 448 448 448 448-200.6 448-448S759.4 64 512 64z m279.7 727.7c-36.3 36.3-78.6 64.9-125.7 84.8-48.8 20.5-100.6 31-154 31S406.8 897 358.1 876.4c-47.1-19.9-89.4-48.4-125.7-84.8-36.3-36.3-64.9-78.6-84.8-125.7-20.6-48.7-31.1-100.5-31.1-153.9s10.4-105.2 31.1-153.9c19.9-47.1 48.4-89.4 84.8-125.7s78.6-64.9 125.7-84.8c48.7-20.6 100.5-31.1 153.9-31.1 53.4 0 105.2 10.4 153.9 31.1 47.1 19.9 89.4 48.4 125.7 84.8 36.3 36.3 64.9 78.6 84.8 125.7 20.6 48.7 31.1 100.5 31.1 153.9S897 617.2 876.4 665.9c-19.9 47.1-48.4 89.4-84.7 125.8z m-71.6-487.8c-13.7-13.7-35.8-13.7-49.5 0L512 462.5 353.4 303.9c-13.7-13.7-35.8-13.7-49.5 0s-13.7 35.8 0 49.5L462.5 512 303.9 670.6c-13.7 13.7-13.7 35.8 0 49.5 6.8 6.8 15.8 10.3 24.7 10.3s17.9-3.4 24.7-10.3L512 561.5l158.6 158.6c6.8 6.8 15.8 10.3 24.7 10.3 9 0 17.9-3.4 24.7-10.3 13.7-13.7 13.7-35.8 0-49.5L561.5 512l158.6-158.6c13.6-13.6 13.6-35.8 0-49.5z" fill="#000000" /></svg>