<svg class="svg-icon" style="width: 1em; height: 1em;vertical-align: middle;fill: currentColor;overflow: hidden;" viewBox="0 0 1024 1024" version="1.1" xmlns="http://www.w3.org/2000/svg"><path d="M468.636377 745.435587c-11.622712 11.597129-18.006096 27.010167-18.006096 43.413765 0 16.404622 6.383384 31.816636 18.006096 43.439348 11.95324 11.927657 27.671223 17.904789 43.3626 17.904789 15.717983 0 31.434943-5.977132 43.388183-17.904789l0.025582-0.025582c11.597129-11.597129 17.981537-27.010167 17.981537-43.413766 0-16.404622-6.383384-31.816636-17.981537-43.388183-23.957645-23.957645-62.869886-23.933085-86.776365-0.025582z m49.949622 50.000787c-3.585665 3.585665-9.511631 3.63683-13.148462 0-2.364861-2.364861-2.720971-5.136997-2.720971-6.587022 0-1.424442 0.356111-4.196579 2.720971-6.561439a9.284457 9.284457 0 0 1 6.56144-2.720971c2.390443 0 4.780887 0.915859 6.612604 2.746553 2.339278 2.339278 2.695389 5.112438 2.695389 6.535857a9.312086 9.312086 0 0 1-2.720971 6.587022zM354.696348 631.546723l36.826743 36.826744c66.456574-66.430992 174.570921-66.430992 240.97633 0l36.826744-36.826744c-86.7252-86.726224-227.903593-86.776366-314.629817 0zM215.808114 492.657466l36.826744 36.826744c69.278853-69.278853 161.396877-107.454314 259.364119-107.454314 97.992825 0 190.112895 38.174438 259.391748 107.454314l36.826744-36.826744c-79.122035-79.122035-184.313819-122.713856-296.218492-122.713856-111.87909 0.001023-217.069851 43.592844-296.190863 122.713856z"  /><path d="M76.893274 353.74365l36.826744 36.826743c219.612767-219.638349 576.946174-219.612767 796.559964 0l36.826744-36.826743c-239.883439-239.883439-630.27987-239.933581-870.213452 0z"  /></svg>